<svg width="48" height="48" viewBox="0 0 48 48" fill="none" xmlns="http://www.w3.org/2000/svg">
  <defs>
    <linearGradient id="logo-gradient" x1="0" y1="0" x2="48" y2="48" gradientUnits="userSpaceOnUse">
      <stop offset="0%" stop-color="hsl(226, 71%, 52%)" />
      <stop offset="100%" stop-color="hsl(243, 75%, 59%)" />
    </linearGradient>
    <linearGradient id="accent-gradient" x1="0" y1="16" x2="48" y2="32" gradientUnits="userSpaceOnUse">
      <stop offset="0%" stop-color="rgba(255,255,255,0.25)" />
      <stop offset="100%" stop-color="rgba(255,255,255,0)" />
    </linearGradient>
  </defs>
  <rect x="0" y="0" width="48" height="48" rx="12" fill="url(#logo-gradient)" />
  <rect x="0" y="0" width="48" height="24" rx="12" fill="url(#accent-gradient)" />
  <path d="M12 12h7.5c3.5 0 6 2.5 6 6s-2.5 6-6 6H16.5V36H12V12z" fill="white" opacity="0.95" />
  <path d="M16.5 16.5h3c1.4 0 2 .8 2 2s-.6 2-2 2h-3V16.5z" fill="url(#logo-gradient)" />
  <path d="M28 12h4.5v18c0 4-2.2 6.5-5.5 6.5-2 0-3.5-.8-4.5-2l3-3c.4.5 1 .8 1.5.8 1.2 0 1.5-1 1.5-2.3V12z" fill="white" opacity="0.95" />
  <circle cx="38" cy="12" r="2.5" fill="rgba(255,255,255,0.5)" />
</svg>
